<?xml version="1.0" encoding="iso-8859-1"?>
<!-- Uploaded to: SVG Repo, www.svgrepo.com, Generator: SVG Repo Mixer Tools -->
<svg version="1.1" id="Layer_1" xmlns="http://www.w3.org/2000/svg" xmlns:xlink="http://www.w3.org/1999/xlink" 
	 viewBox="0 0 512 512" xml:space="preserve">
<polygon style="fill:#DCDCDC;" points="471.149,482.043 503.83,482.043 503.83,95.319 449.362,62.638 "/>
<polygon style="fill:#EEEEEE;" points="8.17,95.319 8.17,482.043 471.149,482.043 471.149,62.638 "/>
<polygon style="fill:#FE5F1A;" points="471.149,29.957 449.362,62.638 471.149,95.319 503.83,95.319 503.83,29.957 "/>
<polygon style="fill:#FE834D;" points="422.128,29.957 389.447,62.638 422.128,95.319 471.149,95.319 471.149,29.957 "/>
<polygon style="fill:#969696;" points="389.447,29.957 356.766,62.638 389.447,95.319 422.128,95.319 422.128,29.957 "/>
<rect x="8.17" y="29.957" style="fill:#B9B9B9;" width="381.277" height="65.362"/>
<polygon style="fill:#D5F6F5;" points="438.468,128 416.681,343.776 438.468,449.362 471.149,449.362 471.149,128 "/>
<rect x="40.851" y="128" style="fill:#FFFFFF;" width="397.617" height="321.362"/>
<polygon style="fill:#FEDC3D;" points="256,181.379 256,288.681 347.221,395.983 379.902,395.983 "/>
<polygon style="fill:#FFE777;" points="132.098,395.983 347.221,395.983 256,181.379 "/>
<path d="M503.83,21.787H8.17c-4.512,0-8.17,3.657-8.17,8.17v452.085c0,4.513,3.658,8.17,8.17,8.17h495.66
	c4.512,0,8.17-3.657,8.17-8.17V29.957C512,25.444,508.342,21.787,503.83,21.787z M495.66,87.149h-65.362V38.128h65.362V87.149z
	 M413.957,38.128v49.021H16.34V38.128H413.957z M16.34,473.872V103.489H495.66v370.383H16.34z"/>
<path d="M471.149,119.83H40.851c-4.512,0-8.17,3.657-8.17,8.17v256c0,4.513,3.658,8.17,8.17,8.17s8.17-3.657,8.17-8.17V136.17
	h413.957v305.021H49.021v-24.511c0-4.513-3.658-8.17-8.17-8.17s-8.17,3.657-8.17,8.17v32.681c0,4.513,3.658,8.17,8.17,8.17h430.298
	c4.512,0,8.17-3.657,8.17-8.17V128C479.319,123.487,475.661,119.83,471.149,119.83z"/>
<circle cx="462.979" cy="62.638" r="8.17"/>
<path d="M189.964,295.756c-3.908-2.256-8.904-0.918-11.161,2.99l-53.781,93.151c-1.46,2.527-1.46,5.643,0,8.17
	c1.46,2.527,4.156,4.085,7.075,4.085h247.805c2.919,0,5.616-1.558,7.075-4.085c1.46-2.527,1.46-5.643,0-8.17L263.076,177.294
	c-1.46-2.527-4.156-4.085-7.075-4.085c-2.919,0-5.616,1.558-7.075,4.085l-53.781,93.151c-2.256,3.908-0.917,8.904,2.99,11.16
	c3.908,2.254,8.903,0.917,11.161-2.99L256,197.719l109.751,190.094H146.249l46.705-80.896
	C195.21,303.009,193.872,298.012,189.964,295.756z"/>
<path d="M247.83,363.302c0,4.513,3.658,8.17,8.17,8.17s8.17-3.657,8.17-8.17v-10.894c0-4.513-3.658-8.17-8.17-8.17
	s-8.17,3.657-8.17,8.17V363.302z"/>
<path d="M256,327.898c4.512,0,8.17-3.657,8.17-8.17V246.74c0-4.513-3.658-8.17-8.17-8.17s-8.17,3.657-8.17,8.17v72.987
	C247.83,324.241,251.488,327.898,256,327.898z"/>
</svg>